<svg width="384" height="96" xmlns="http://www.w3.org/2000/svg" xmlns:xlink="http://www.w3.org/1999/xlink" overflow="hidden"><defs><clipPath id="clip0"><path d="M0 0 384 0 384 96 0 96Z" fill-rule="evenodd" clip-rule="evenodd"/></clipPath><clipPath id="clip1"><path d="M0 0 384 0 384 85 0 85Z" fill-rule="evenodd" clip-rule="evenodd"/></clipPath><clipPath id="clip2"><path d="M0-1 384-1 384 85 0 85Z" fill-rule="evenodd" clip-rule="evenodd"/></clipPath><clipPath id="clip3"><path d="M182-1 366-1 366 95 182 95Z" fill-rule="evenodd" clip-rule="evenodd"/></clipPath><clipPath id="clip4"><path d="M182-1 366-1 366 95 182 95Z" fill-rule="evenodd" clip-rule="evenodd"/></clipPath><clipPath id="clip5"><path d="M-292-1 656-1 656 95-292 95Z" fill-rule="evenodd" clip-rule="evenodd"/></clipPath><clipPath id="clip6"><path d="M-16-1 191-1 191 95-16 95Z" fill-rule="evenodd" clip-rule="evenodd"/></clipPath><clipPath id="clip7"><path d="M-16-1 191-1 191 95-16 95Z" fill-rule="evenodd" clip-rule="evenodd"/></clipPath><clipPath id="clip8"><path d="M-110-1 841-1 841 95-110 95Z" fill-rule="evenodd" clip-rule="evenodd"/></clipPath></defs><g clip-path="url(#clip0)"><rect x="0" y="0" width="384" height="96" fill="#FFFFFF"/><g clip-path="url(#clip1)"><g clip-path="url(#clip2)"><path d="M0 0 2016.97 0 2016.97 1134.54 0 1134.54Z" fill="#FFFFFF" transform="matrix(1.00203 0 -0 1 -832.957 -520.086)"/><g clip-path="url(#clip3)"><g clip-path="url(#clip4)"><g clip-path="url(#clip5)"><path d="M28.3637 56.7273 28.3637 66.1819 37.8182 66.1819 37.8182 56.7273 28.3637 56.7273ZM34.6666 63.0304 31.5152 63.0304 31.5152 59.8789 34.6666 59.8789 34.6666 63.0304Z" fill="#464646" transform="matrix(1.00101 0 -0 1 -290.896 -0.0869817)"/><path d="M56.7273 28.3637 56.7273 37.8182 66.1819 37.8182 66.1819 28.3637 56.7273 28.3637ZM63.0304 34.6666 59.8789 34.6666 59.8789 31.5152 63.0304 31.5152 63.0304 34.6666Z" fill="#464646" transform="matrix(1.00101 0 -0 1 -290.896 -0.0869817)"/><path d="M36.4662 61.6831 32.8656 58.0745 58.0777 32.8656 61.6783 36.4662Z" fill="#464646" transform="matrix(1.00101 0 -0 1 -290.896 -0.0869817)"/><path d="M157.576 38.7085 154.273 62.0771 130.898 66.1819 119.758 45.3394 136.245 28.3637Z" fill="#464646" transform="matrix(1.00101 0 -0 1 -290.896 -0.0869817)"/><path d="M220.607 31.5152 252.121 31.5152 252.121 63.0304 220.607 63.0304Z" fill="#464646" transform="matrix(1.00101 0 -0 1 -290.896 -0.0869817)"/><path d="M348.242 47.2728C348.242 56.8502 340.48 64.6061 330.91 64.6061 321.339 64.6061 313.576 56.8502 313.576 47.2728 313.576 37.7016 321.339 29.9394 330.91 29.9394 340.48 29.9394 348.242 37.7016 348.242 47.2728Z" fill="#464646" transform="matrix(1.00101 0 -0 1 -290.896 -0.0869817)"/><path d="M425.456 29.9394C417.622 29.9394 411.273 36.2882 411.273 44.1212 411.273 51.9544 419.154 63.0304 425.456 66.1819 431.76 63.0304 439.636 51.9544 439.636 44.1212 439.636 36.2882 433.289 29.9394 425.456 29.9394ZM425.456 49.6364C421.541 49.6364 418.364 46.4628 418.364 42.5456 418.364 38.6313 421.541 35.4545 425.456 35.4545 429.371 35.4545 432.546 38.6313 432.546 42.5456 432.546 46.4628 429.371 49.6364 425.456 49.6364Z" fill="#464646" transform="matrix(1.00101 0 -0 1 -290.896 -0.0869817)"/><path d="M531.032 47.5187 531.032 48.1599 531.032 56.9904C531.032 59.6031 528.913 61.7178 526.304 61.7178L510.546 61.7178C507.937 61.7178 505.819 59.6031 505.819 56.9904L505.819 41.2329C505.819 38.6219 507.937 36.5057 510.546 36.5057L520.544 36.5057 525.571 31.5105 510.546 31.5105C505.325 31.5105 501.092 35.7444 501.092 40.965L501.092 56.7226C501.092 61.9432 505.325 66.1771 510.546 66.1771L526.304 66.1771C531.525 66.1771 535.757 61.9432 535.757 56.7226L535.757 42.8418 531.032 47.5187" fill="#464646" transform="matrix(1.00101 0 -0 1 -290.896 -0.0869817)"/><path d="M533.742 38.822 519.73 52.8336 515.274 52.8336 515.274 48.3758 529.282 34.3673Z" fill="#464646" transform="matrix(1.00101 0 -0 1 -290.896 -0.0869817)"/><path d="M338.697 17.826 342.697 17.826 342.697 21.826 338.697 21.826Z" fill="#464646" transform="matrix(-1.11516 -1.11442 1.11554 -1.11403 604.339 432.904)"/><path d="M600.365 66.1819 628.729 66.1819 628.729 37.8182 600.365 37.8182 600.365 66.1819ZM622.426 40.9698 625.577 40.9698 625.577 63.0304 622.426 63.0304 622.426 40.9698ZM616.122 40.9698 619.274 40.9698 619.274 63.0304 616.122 63.0304 616.122 40.9698ZM609.819 40.9698 612.971 40.9698 612.971 63.0304 609.819 63.0304 609.819 40.9698ZM603.516 40.9698 606.668 40.9698 606.668 63.0304 603.516 63.0304 603.516 40.9698Z" fill="#464646" transform="matrix(1.00101 0 -0 1 -290.896 -0.0869817)"/><path d="M622.426 31.5152 622.426 25.2121 606.668 25.2121 606.668 31.5152 597.213 31.5152 597.213 34.6666 631.879 34.6666 631.879 31.5152 622.426 31.5152ZM619.274 31.5152 609.819 31.5152 609.819 28.3637 619.274 28.3637 619.274 31.5152Z" fill="#464646" transform="matrix(1.00101 0 -0 1 -290.896 -0.0869817)"/><path d="M531.032 47.5187 531.032 48.1599 531.032 56.9904C531.032 59.6031 528.913 61.7178 526.304 61.7178L510.546 61.7178C507.937 61.7178 505.819 59.6031 505.819 56.9904L505.819 41.2329C505.819 38.6219 507.937 36.5057 510.546 36.5057L520.544 36.5057 525.571 31.5105 510.546 31.5105C505.325 31.5105 501.092 35.7444 501.092 40.965L501.092 56.7226C501.092 61.9432 505.325 66.1771 510.546 66.1771L526.304 66.1771C531.525 66.1771 535.757 61.9432 535.757 56.7226L535.757 42.8418 531.032 47.5187" fill="#464646" transform="matrix(1.00101 0 -0 1 -101.615 -0.0869817)"/><path d="M533.742 38.822 519.73 52.8336 515.274 52.8336 515.274 48.3758 529.282 34.3673Z" fill="#464646" transform="matrix(1.00101 0 -0 1 -101.615 -0.0869817)"/><path d="M338.697 17.826 342.697 17.826 342.697 21.826 338.697 21.826Z" fill="#464646" transform="matrix(-1.11516 -1.11442 1.11554 -1.11403 793.628 432.904)"/><path d="M600.365 66.1819 628.729 66.1819 628.729 37.8182 600.365 37.8182 600.365 66.1819ZM622.426 40.9698 625.577 40.9698 625.577 63.0304 622.426 63.0304 622.426 40.9698ZM616.122 40.9698 619.274 40.9698 619.274 63.0304 616.122 63.0304 616.122 40.9698ZM609.819 40.9698 612.971 40.9698 612.971 63.0304 609.819 63.0304 609.819 40.9698ZM603.516 40.9698 606.668 40.9698 606.668 63.0304 603.516 63.0304 603.516 40.9698Z" fill="#464646" transform="matrix(1.00101 0 -0 1 -101.615 -0.0869817)"/><path d="M622.426 31.5152 622.426 25.2121 606.668 25.2121 606.668 31.5152 597.213 31.5152 597.213 34.6666 631.879 34.6666 631.879 31.5152 622.426 31.5152ZM619.274 31.5152 609.819 31.5152 609.819 28.3637 619.274 28.3637 619.274 31.5152Z" fill="#464646" transform="matrix(1.00101 0 -0 1 -101.615 -0.0869817)"/><path d="M916.552 47.2728C916.552 56.8502 908.789 64.6061 899.218 64.6061 889.648 64.6061 881.886 56.8502 881.886 47.2728 881.886 37.7016 889.648 29.9394 899.218 29.9394 908.789 29.9394 916.552 37.7016 916.552 47.2728Z" stroke="#464646" stroke-width="3.15152" fill="none" transform="matrix(1.00101 0 -0 1 -290.896 -0.0869817)"/></g></g></g><g clip-path="url(#clip6)"><g clip-path="url(#clip7)"><g clip-path="url(#clip8)"><path d="M28.3636 56.7272 28.3636 66.1817 37.8181 66.1817 37.8181 56.7272 28.3636 56.7272ZM34.6666 63.0302 31.5151 63.0302 31.5151 59.8787 34.6666 59.8787 34.6666 63.0302Z" fill="#464646" transform="matrix(1.00335 0 -0 1 -108.482 -0.0869817)"/><path d="M56.7272 28.3636 56.7272 37.8181 66.1817 37.8181 66.1817 28.3636 56.7272 28.3636ZM63.0302 34.6666 59.8787 34.6666 59.8787 31.5151 63.0302 31.5151 63.0302 34.6666Z" fill="#464646" transform="matrix(1.00335 0 -0 1 -108.482 -0.0869817)"/><path d="M36.4661 61.6829 32.8655 58.0744 58.0776 32.8655 61.6782 36.4661Z" fill="#464646" transform="matrix(1.00335 0 -0 1 -108.482 -0.0869817)"/><path d="M157.575 38.7084 154.273 62.0769 130.898 66.1817 119.757 45.3392 136.244 28.3636Z" fill="#464646" transform="matrix(1.00335 0 -0 1 -108.482 -0.0869817)"/><path d="M220.606 31.5151 252.121 31.5151 252.121 63.0302 220.606 63.0302Z" fill="#464646" transform="matrix(1.00335 0 -0 1 -108.482 -0.0869817)"/><path d="M348.242 47.2726C348.242 56.8501 340.48 64.6059 330.909 64.6059 321.337 64.6059 313.575 56.8501 313.575 47.2726 313.575 37.7015 321.337 29.9393 330.909 29.9393 340.48 29.9393 348.242 37.7015 348.242 47.2726Z" fill="#464646" transform="matrix(1.00335 0 -0 1 -108.482 -0.0869817)"/><path d="M425.454 29.9393C417.621 29.9393 411.272 36.2881 411.272 44.1211 411.272 51.9542 419.152 63.0302 425.454 66.1817 431.758 63.0302 439.636 51.9542 439.636 44.1211 439.636 36.2881 433.287 29.9393 425.454 29.9393ZM425.454 49.6363C421.54 49.6363 418.363 46.4627 418.363 42.5454 418.363 38.6312 421.54 35.4545 425.454 35.4545 429.37 35.4545 432.545 38.6312 432.545 42.5454 432.545 46.4627 429.37 49.6363 425.454 49.6363Z" fill="#464646" transform="matrix(1.00335 0 -0 1 -108.482 -0.0869817)"/><path d="M531.029 47.5185 531.029 48.1598 531.029 56.9903C531.029 59.6029 528.912 61.7176 526.302 61.7176L510.545 61.7176C507.937 61.7176 505.817 59.6029 505.817 56.9903L505.817 41.2328C505.817 38.6218 507.937 36.5055 510.545 36.5055L520.543 36.5055 525.569 31.5104 510.545 31.5104C505.324 31.5104 501.09 35.7444 501.09 40.9649L501.09 56.7225C501.09 61.9429 505.324 66.177 510.545 66.177L526.302 66.177C531.524 66.177 535.757 61.9429 535.757 56.7225L535.757 42.8416 531.029 47.5185" fill="#464646" transform="matrix(1.00335 0 -0 1 -108.482 -0.0869817)"/><path d="M533.74 38.8219 519.728 52.8335 515.272 52.8335 515.272 48.3757 529.28 34.3672Z" fill="#464646" transform="matrix(1.00335 0 -0 1 -108.482 -0.0869817)"/><path d="M338.697 17.826 342.697 17.826 342.697 21.826 338.697 21.826Z" fill="#464646" transform="matrix(-1.11777 -1.11442 1.11816 -1.11403 788.843 432.904)"/><path d="M600.363 66.1817 628.726 66.1817 628.726 37.8181 600.363 37.8181 600.363 66.1817ZM622.423 40.9696 625.575 40.9696 625.575 63.0302 622.423 63.0302 622.423 40.9696ZM616.12 40.9696 619.272 40.9696 619.272 63.0302 616.12 63.0302 616.12 40.9696ZM609.817 40.9696 612.969 40.9696 612.969 63.0302 609.817 63.0302 609.817 40.9696ZM603.514 40.9696 606.666 40.9696 606.666 63.0302 603.514 63.0302 603.514 40.9696Z" fill="#464646" transform="matrix(1.00335 0 -0 1 -108.482 -0.0869817)"/><path d="M622.423 31.5151 622.423 25.2121 606.666 25.2121 606.666 31.5151 597.211 31.5151 597.211 34.6666 631.878 34.6666 631.878 31.5151 622.423 31.5151ZM619.272 31.5151 609.817 31.5151 609.817 28.3636 619.272 28.3636 619.272 31.5151Z" fill="#464646" transform="matrix(1.00335 0 -0 1 -108.482 -0.0869817)"/><path d="M531.029 47.5185 531.029 48.1598 531.029 56.9903C531.029 59.6029 528.912 61.7176 526.302 61.7176L510.545 61.7176C507.937 61.7176 505.817 59.6029 505.817 56.9903L505.817 41.2328C505.817 38.6218 507.937 36.5055 510.545 36.5055L520.543 36.5055 525.569 31.5104 510.545 31.5104C505.324 31.5104 501.09 35.7444 501.09 40.9649L501.09 56.7225C501.09 61.9429 505.324 66.177 510.545 66.177L526.302 66.177C531.524 66.177 535.757 61.9429 535.757 56.7225L535.757 42.8416 531.029 47.5185" fill="#464646" transform="matrix(1.00335 0 -0 1 81.2428 -0.0869817)"/><path d="M533.74 38.8219 519.728 52.8335 515.272 52.8335 515.272 48.3757 529.28 34.3672Z" fill="#464646" transform="matrix(1.00335 0 -0 1 81.2428 -0.0869817)"/><path d="M338.697 17.826 342.697 17.826 342.697 21.826 338.697 21.826Z" fill="#464646" transform="matrix(-1.11777 -1.11442 1.11816 -1.11403 978.57 432.904)"/><path d="M600.363 66.1817 628.726 66.1817 628.726 37.8181 600.363 37.8181 600.363 66.1817ZM622.423 40.9696 625.575 40.9696 625.575 63.0302 622.423 63.0302 622.423 40.9696ZM616.12 40.9696 619.272 40.9696 619.272 63.0302 616.12 63.0302 616.12 40.9696ZM609.817 40.9696 612.969 40.9696 612.969 63.0302 609.817 63.0302 609.817 40.9696ZM603.514 40.9696 606.666 40.9696 606.666 63.0302 603.514 63.0302 603.514 40.9696Z" fill="#464646" transform="matrix(1.00335 0 -0 1 81.2428 -0.0869817)"/><path d="M622.423 31.5151 622.423 25.2121 606.666 25.2121 606.666 31.5151 597.211 31.5151 597.211 34.6666 631.878 34.6666 631.878 31.5151 622.423 31.5151ZM619.272 31.5151 609.817 31.5151 609.817 28.3636 619.272 28.3636 619.272 31.5151Z" fill="#464646" transform="matrix(1.00335 0 -0 1 81.2428 -0.0869817)"/><path d="M916.549 47.2726C916.549 56.8501 908.787 64.6059 899.216 64.6059 889.644 64.6059 881.882 56.8501 881.882 47.2726 881.882 37.7015 889.644 29.9393 899.216 29.9393 908.787 29.9393 916.549 37.7015 916.549 47.2726Z" stroke="#464646" stroke-width="3.15151" fill="none" transform="matrix(1.00335 0 -0 1 -108.482 -0.0869817)"/></g></g></g></g></g></g></svg>