<svg width="1280" height="720" xmlns="http://www.w3.org/2000/svg" xmlns:xlink="http://www.w3.org/1999/xlink" overflow="hidden"><defs><clipPath id="clip0"><path d="M0 0 1280 0 1280 720 0 720Z" fill-rule="evenodd" clip-rule="evenodd"/></clipPath><clipPath id="clip1"><path d="M643 330 759 330 759 390 643 390Z" fill-rule="evenodd" clip-rule="evenodd"/></clipPath><clipPath id="clip2"><path d="M643 330 759 330 759 390 643 390Z" fill-rule="evenodd" clip-rule="evenodd"/></clipPath><clipPath id="clip3"><path d="M343 330 943 330 943 390 343 390Z" fill-rule="evenodd" clip-rule="evenodd"/></clipPath><clipPath id="clip4"><path d="M518 330 648 330 648 390 518 390Z" fill-rule="evenodd" clip-rule="evenodd"/></clipPath><clipPath id="clip5"><path d="M518 330 648 330 648 390 518 390Z" fill-rule="evenodd" clip-rule="evenodd"/></clipPath><clipPath id="clip6"><path d="M458 330 1060 330 1060 390 458 390Z" fill-rule="evenodd" clip-rule="evenodd"/></clipPath></defs><g clip-path="url(#clip0)"><rect x="0" y="0" width="1280" height="720" fill="#FFFFFF"/><g clip-path="url(#clip1)"><g clip-path="url(#clip2)"><g clip-path="url(#clip3)"><path d="M17.9817 35.9634 17.9817 41.9573 23.9756 41.9573 23.9756 35.9634 17.9817 35.9634ZM21.9776 39.9594 19.9797 39.9594 19.9797 37.9614 21.9776 37.9614 21.9776 39.9594Z" fill="#464646" transform="matrix(1 0 -0 1.00102 343.305 330)"/><path d="M35.9634 17.9817 35.9634 23.9756 41.9573 23.9756 41.9573 17.9817 35.9634 17.9817ZM39.9594 21.9776 37.9614 21.9776 37.9614 19.9797 39.9594 19.9797 39.9594 21.9776Z" fill="#464646" transform="matrix(1 0 -0 1.00102 343.305 330)"/><path d="M23.1185 39.1052 20.8358 36.8175 36.8195 20.8358 39.1022 23.1185Z" fill="#464646" transform="matrix(1 0 -0 1.00102 343.305 330)"/><path d="M99.8984 24.54 97.8045 39.355 82.9856 41.9573 75.9228 28.7438 86.3751 17.9817Z" fill="#464646" transform="matrix(1 0 -0 1.00102 343.305 330)"/><path d="M139.858 19.9797 159.837 19.9797 159.837 39.9594 139.858 39.9594Z" fill="#464646" transform="matrix(1 0 -0 1.00102 343.305 330)"/><path d="M220.775 29.9695C220.775 36.0413 215.854 40.9583 209.787 40.9583 203.719 40.9583 198.798 36.0413 198.798 29.9695 198.798 23.9017 203.719 18.9807 209.787 18.9807 215.854 18.9807 220.775 23.9017 220.775 29.9695Z" fill="#464646" transform="matrix(1 0 -0 1.00102 343.305 330)"/><path d="M269.726 18.9807C264.76 18.9807 260.735 23.0056 260.735 27.9715 260.735 32.9375 265.731 39.9594 269.726 41.9573 273.723 39.9594 278.716 32.9375 278.716 27.9715 278.716 23.0056 274.692 18.9807 269.726 18.9807ZM269.726 31.468C267.244 31.468 265.23 29.456 265.23 26.9726 265.23 24.4911 267.244 22.4771 269.726 22.4771 272.208 22.4771 274.221 24.4911 274.221 26.9726 274.221 29.456 272.208 31.468 269.726 31.468Z" fill="#464646" transform="matrix(1 0 -0 1.00102 343.305 330)"/><path d="M336.658 30.1254 336.658 30.5319 336.658 36.1302C336.658 37.7866 335.315 39.1272 333.661 39.1272L323.671 39.1272C322.017 39.1272 320.674 37.7866 320.674 36.1302L320.674 26.1404C320.674 24.4851 322.017 23.1435 323.671 23.1435L330.009 23.1435 333.196 19.9767 323.671 19.9767C320.361 19.9767 317.677 22.6609 317.677 25.9706L317.677 35.9604C317.677 39.2701 320.361 41.9543 323.671 41.9543L333.661 41.9543C336.971 41.9543 339.654 39.2701 339.654 35.9604L339.654 27.1604 336.658 30.1254" fill="#464646" transform="matrix(1 0 -0 1.00102 343.305 330)"/><path d="M338.376 24.612 329.493 33.4949 326.668 33.4949 326.668 30.6688 335.549 21.7878Z" fill="#464646" transform="matrix(1 0 -0 1.00102 343.305 330)"/><path d="M338.697 17.826 342.697 17.826 342.697 21.826 338.697 21.826Z" fill="#464646" transform="matrix(-0.706265 -0.70723 0.706511 -0.706983 910.287 604.783)"/><path d="M380.613 41.9573 398.595 41.9573 398.595 23.9756 380.613 23.9756 380.613 41.9573ZM394.599 25.9736 396.597 25.9736 396.597 39.9594 394.599 39.9594 394.599 25.9736ZM390.603 25.9736 392.601 25.9736 392.601 39.9594 390.603 39.9594 390.603 25.9736ZM386.607 25.9736 388.605 25.9736 388.605 39.9594 386.607 39.9594 386.607 25.9736ZM382.611 25.9736 384.609 25.9736 384.609 39.9594 382.611 39.9594 382.611 25.9736Z" fill="#464646" transform="matrix(1 0 -0 1.00102 343.305 330)"/><path d="M394.599 19.9797 394.599 15.9837 384.609 15.9837 384.609 19.9797 378.615 19.9797 378.615 21.9776 400.592 21.9776 400.592 19.9797 394.599 19.9797ZM392.601 19.9797 386.607 19.9797 386.607 17.9817 392.601 17.9817 392.601 19.9797Z" fill="#464646" transform="matrix(1 0 -0 1.00102 343.305 330)"/><path d="M336.658 30.1254 336.658 30.5319 336.658 36.1302C336.658 37.7866 335.315 39.1272 333.661 39.1272L323.671 39.1272C322.017 39.1272 320.674 37.7866 320.674 36.1302L320.674 26.1404C320.674 24.4851 322.017 23.1435 323.671 23.1435L330.009 23.1435 333.196 19.9767 323.671 19.9767C320.361 19.9767 317.677 22.6609 317.677 25.9706L317.677 35.9604C317.677 39.2701 320.361 41.9543 323.671 41.9543L333.661 41.9543C336.971 41.9543 339.654 39.2701 339.654 35.9604L339.654 27.1604 336.658 30.1254" fill="#464646" transform="matrix(1 0 -0 1.00102 463.183 330)"/><path d="M338.376 24.612 329.493 33.4949 326.668 33.4949 326.668 30.6688 335.549 21.7878Z" fill="#464646" transform="matrix(1 0 -0 1.00102 463.183 330)"/><path d="M338.697 17.826 342.697 17.826 342.697 21.826 338.697 21.826Z" fill="#464646" transform="matrix(-0.706265 -0.70723 0.706511 -0.706983 1030.17 604.783)"/><path d="M380.613 41.9573 398.595 41.9573 398.595 23.9756 380.613 23.9756 380.613 41.9573ZM394.599 25.9736 396.597 25.9736 396.597 39.9594 394.599 39.9594 394.599 25.9736ZM390.603 25.9736 392.601 25.9736 392.601 39.9594 390.603 39.9594 390.603 25.9736ZM386.607 25.9736 388.605 25.9736 388.605 39.9594 386.607 39.9594 386.607 25.9736ZM382.611 25.9736 384.609 25.9736 384.609 39.9594 382.611 39.9594 382.611 25.9736Z" fill="#464646" transform="matrix(1 0 -0 1.00102 463.183 330)"/><path d="M394.599 19.9797 394.599 15.9837 384.609 15.9837 384.609 19.9797 378.615 19.9797 378.615 21.9776 400.592 21.9776 400.592 19.9797 394.599 19.9797ZM392.601 19.9797 386.607 19.9797 386.607 17.9817 392.601 17.9817 392.601 19.9797Z" fill="#464646" transform="matrix(1 0 -0 1.00102 463.183 330)"/><path d="M581.066 29.9695C581.066 36.0413 576.145 40.9583 570.077 40.9583 564.01 40.9583 559.089 36.0413 559.089 29.9695 559.089 23.9017 564.01 18.9807 570.077 18.9807 576.145 18.9807 581.066 23.9017 581.066 29.9695Z" stroke="#464646" stroke-width="1.99797" fill="none" transform="matrix(1 0 -0 1.00102 343.305 330)"/></g></g></g><g clip-path="url(#clip4)"><g clip-path="url(#clip5)"><g clip-path="url(#clip6)"><path d="M18 36 18 42 24 42 24 36 18 36ZM22 40 20 40 20 38 22 38 22 40Z" fill="#464646" transform="matrix(1.00132 0 -0 1 458.834 330)"/><path d="M36 18 36 24 42 24 42 18 36 18ZM40 22 38 22 38 20 40 20 40 22Z" fill="#464646" transform="matrix(1.00132 0 -0 1 458.834 330)"/><path d="M23.142 39.145 20.857 36.855 36.857 20.857 39.142 23.142Z" fill="#464646" transform="matrix(1.00132 0 -0 1 458.834 330)"/><path d="M100 24.565 97.904 39.395 83.07 42 76 28.773 86.463 18Z" fill="#464646" transform="matrix(1.00132 0 -0 1 458.834 330)"/><path d="M140 20 160 20 160 40 140 40Z" fill="#464646" transform="matrix(1.00132 0 -0 1 458.834 330)"/><path d="M221 30C221 36.078 216.074 41 210 41 203.926 41 199 36.078 199 30 199 23.926 203.926 19 210 19 216.074 19 221 23.926 221 30Z" fill="#464646" transform="matrix(1.00132 0 -0 1 458.834 330)"/><path d="M270 19C265.029 19 261 23.029 261 28 261 32.971 266.001 40 270 42 274.001 40 279 32.971 279 28 279 23.029 274.971 19 270 19ZM270 31.5C267.516 31.5 265.5 29.486 265.5 27 265.5 24.516 267.516 22.5 270 22.5 272.485 22.5 274.5 24.516 274.5 27 274.5 29.486 272.485 31.5 270 31.5Z" fill="#464646" transform="matrix(1.00132 0 -0 1 458.834 330)"/><path d="M337 30.156 337 30.563 337 36.167C337 37.825 335.656 39.167 334 39.167L324 39.167C322.345 39.167 321 37.825 321 36.167L321 26.167C321 24.51 322.345 23.167 324 23.167L330.345 23.167 333.535 19.997 324 19.997C320.687 19.997 318 22.684 318 25.997L318 35.997C318 39.31 320.687 41.997 324 41.997L334 41.997C337.314 41.997 340 39.31 340 35.997L340 27.188 337 30.156" fill="#464646" transform="matrix(1.00132 0 -0 1 458.834 330)"/><path d="M338.72 24.637 329.828 33.529 327 33.529 327 30.7 335.89 21.81Z" fill="#464646" transform="matrix(1.00132 0 -0 1 458.834 330)"/><path d="M338.697 17.826 342.697 17.826 342.697 21.826 338.697 21.826Z" fill="#464646" transform="matrix(-0.70792 -0.70723 0.708167 -0.706983 1027.14 604.783)"/><path d="M381 42 399 42 399 24 381 24 381 42ZM395 26 397 26 397 40 395 40 395 26ZM391 26 393 26 393 40 391 40 391 26ZM387 26 389 26 389 40 387 40 387 26ZM383 26 385 26 385 40 383 40 383 26Z" fill="#464646" transform="matrix(1.00132 0 -0 1 458.834 330)"/><path d="M395 20 395 16 385 16 385 20 379 20 379 22 401 22 401 20 395 20ZM393 20 387 20 387 18 393 18 393 20Z" fill="#464646" transform="matrix(1.00132 0 -0 1 458.834 330)"/><path d="M337 30.156 337 30.563 337 36.167C337 37.825 335.656 39.167 334 39.167L324 39.167C322.345 39.167 321 37.825 321 36.167L321 26.167C321 24.51 322.345 23.167 324 23.167L330.345 23.167 333.535 19.997 324 19.997C320.687 19.997 318 22.684 318 25.997L318 35.997C318 39.31 320.687 41.997 324 41.997L334 41.997C337.314 41.997 340 39.31 340 35.997L340 27.188 337 30.156" fill="#464646" transform="matrix(1.00132 0 -0 1 578.993 330)"/><path d="M338.72 24.637 329.828 33.529 327 33.529 327 30.7 335.89 21.81Z" fill="#464646" transform="matrix(1.00132 0 -0 1 578.993 330)"/><path d="M338.697 17.826 342.697 17.826 342.697 21.826 338.697 21.826Z" fill="#464646" transform="matrix(-0.70792 -0.70723 0.708167 -0.706983 1147.3 604.783)"/><path d="M381 42 399 42 399 24 381 24 381 42ZM395 26 397 26 397 40 395 40 395 26ZM391 26 393 26 393 40 391 40 391 26ZM387 26 389 26 389 40 387 40 387 26ZM383 26 385 26 385 40 383 40 383 26Z" fill="#464646" transform="matrix(1.00132 0 -0 1 578.993 330)"/><path d="M395 20 395 16 385 16 385 20 379 20 379 22 401 22 401 20 395 20ZM393 20 387 20 387 18 393 18 393 20Z" fill="#464646" transform="matrix(1.00132 0 -0 1 578.993 330)"/><path d="M581.657 30C581.657 36.078 576.731 41 570.657 41 564.583 41 559.657 36.078 559.657 30 559.657 23.926 564.583 19 570.657 19 576.731 19 581.657 23.926 581.657 30Z" stroke="#464646" stroke-width="2" fill="none" transform="matrix(1.00132 0 -0 1 458.834 330)"/></g></g></g></g></svg>
